<?xml version="1.0" encoding="UTF-8" standalone="no"?>
<svg
   height="24px"
   viewBox="0 -960 960 960"
   width="24px"
   fill="#e8eaed"
   version="1.1"
   id="svg1"
   sodipodi:docname="download.svg"
   inkscape:version="1.3.2 (091e20e, 2023-11-25, custom)"
   xmlns:inkscape="http://www.inkscape.org/namespaces/inkscape"
   xmlns:sodipodi="http://sodipodi.sourceforge.net/DTD/sodipodi-0.dtd"
   xmlns="http://www.w3.org/2000/svg"
   xmlns:svg="http://www.w3.org/2000/svg">
  <defs
     id="defs1" />
  <sodipodi:namedview
     id="namedview1"
     pagecolor="#ffffff"
     bordercolor="#000000"
     borderopacity="0.25"
     inkscape:showpageshadow="2"
     inkscape:pageopacity="0.0"
     inkscape:pagecheckerboard="0"
     inkscape:deskcolor="#d1d1d1"
     inkscape:zoom="24.666667"
     inkscape:cx="12"
     inkscape:cy="12"
     inkscape:window-width="1440"
     inkscape:window-height="830"
     inkscape:window-x="-6"
     inkscape:window-y="-6"
     inkscape:window-maximized="1"
     inkscape:current-layer="svg1" />
  <path
     d="M480-337q-8 0-15-2.5t-13-8.5L308-492q-12-12-11.5-28t11.5-28q12-12 28.5-12.5T365-549l75 75v-286q0-17 11.5-28.5T480-800q17 0 28.5 11.5T520-760v286l75-75q12-12 28.5-11.5T652-548q11 12 11.5 28T652-492L508-348q-6 6-13 8.5t-15 2.5ZM240-160q-33 0-56.5-23.5T160-240v-80q0-17 11.5-28.5T200-360q17 0 28.5 11.5T240-320v80h480v-80q0-17 11.5-28.5T760-360q17 0 28.5 11.5T800-320v80q0 33-23.5 56.5T720-160H240Z"
     id="path1"
     style="fill:#000000;fill-opacity:1" />
</svg>
