<?xml version="1.0" encoding="UTF-8" standalone="no"?>
<!-- Created with Inkscape (http://www.inkscape.org/) -->

<svg
   version="1.1"
   id="svg1"
   width="600"
   height="300"
   viewBox="0 0 600 300"
   sodipodi:docname="handshake.svg"
   inkscape:version="1.3.2 (091e20e, 2023-11-25, custom)"
   xmlns:inkscape="http://www.inkscape.org/namespaces/inkscape"
   xmlns:sodipodi="http://sodipodi.sourceforge.net/DTD/sodipodi-0.dtd"
   xmlns="http://www.w3.org/2000/svg"
   xmlns:svg="http://www.w3.org/2000/svg">
  <defs
     id="defs1" />
  <sodipodi:namedview
     id="namedview1"
     pagecolor="#ffffff"
     bordercolor="#000000"
     borderopacity="0.25"
     inkscape:showpageshadow="2"
     inkscape:pageopacity="0.0"
     inkscape:pagecheckerboard="0"
     inkscape:deskcolor="#d1d1d1"
     inkscape:zoom="1.32"
     inkscape:rotation="-1"
     inkscape:cx="300.05367"
     inkscape:cy="151.47185"
     inkscape:window-width="1440"
     inkscape:window-height="830"
     inkscape:window-x="-6"
     inkscape:window-y="-6"
     inkscape:window-maximized="1"
     inkscape:current-layer="g1" />
  <g
     inkscape:groupmode="layer"
     inkscape:label="Image"
     id="g1">
    <path
       style="fill:#ffffff;fill-opacity:1"
       d="m 246.50705,245.80009 c 0.73271,-3.16797 5.22533,-28.25446 14.03175,-78.35228 4.18441,-23.80417 8.22962,-46.63826 8.98937,-50.74243 0.75974,-4.10416 2.08975,-11.49166 2.95557,-16.41666 0.86581,-4.924999 2.48554,-13.790349 3.59938,-19.700769 1.11385,-5.91042 2.02517,-10.8963 2.02517,-11.07975 0,-0.18344 7.44375,-0.3699 16.54167,-0.41434 13.68465,-0.0668 16.54167,0.16402 16.54167,1.33666 0,1.23158 -13.3908,77.407209 -15.87394,90.301379 -0.50057,2.59931 -0.63002,4.71974 -0.28767,4.71207 0.34236,-0.008 8.52849,-6.42814 18.1914,-14.26772 l 17.56893,-14.25378 5.7867,-33.16273 c 3.18268,-18.239499 6.02736,-33.549189 6.3215,-34.021539 0.41748,-0.67038 33.51742,-1.12299 33.43749,-0.45722 -0.0108,0.0904 -0.67586,3.74612 -1.4778,8.12389 -0.80194,4.37778 -2.39849,13.33233 -3.54788,19.899 -1.1494,6.566659 -7.59036,43.056439 -14.31326,81.088379 l -12.22346,69.149 -16.79101,0.27279 c -9.23505,0.15004 -16.79264,-0.0738 -16.79465,-0.49747 -0.003,-0.67666 2.51779,-14.82774 11.48114,-64.44704 1.28507,-7.11389 2.15602,-13.12557 1.93546,-13.35929 -0.22057,-0.23372 -1.63696,0.7269 -3.14753,2.13471 -1.51056,1.4078 -9.51023,8.01336 -17.77703,14.67901 l -15.03054,12.11937 -3.21562,18.08178 c -1.76859,9.94499 -3.72998,21.10395 -4.35865,24.7977 l -1.14302,6.71591 h -16.97145 -16.97145 z"
       id="path1" />
  </g>
</svg>
