<?xml version="1.0" encoding="UTF-8" standalone="no"?>
<!-- Created with Inkscape (http://www.inkscape.org/) -->

<svg
   width="200mm"
   height="200mm"
   viewBox="0 0 100 100"
   version="1.1"
   id="svg1"
   xml:space="preserve"
   inkscape:export-filename="anna_circle .svg"
   inkscape:export-xdpi="96"
   inkscape:export-ydpi="96"
   sodipodi:docname="logo.svg"
   inkscape:version="1.3.2 (091e20e, 2023-11-25, custom)"
   xmlns:inkscape="http://www.inkscape.org/namespaces/inkscape"
   xmlns:sodipodi="http://sodipodi.sourceforge.net/DTD/sodipodi-0.dtd"
   xmlns="http://www.w3.org/2000/svg"
   xmlns:svg="http://www.w3.org/2000/svg"><sodipodi:namedview
     id="namedview1"
     pagecolor="#ffffff"
     bordercolor="#000000"
     borderopacity="0.24705882"
     inkscape:showpageshadow="2"
     inkscape:pageopacity="0.0"
     inkscape:pagecheckerboard="0"
     inkscape:deskcolor="#d1d1d1"
     inkscape:document-units="mm"
     inkscape:zoom="0.78316667"
     inkscape:cx="377.95276"
     inkscape:cy="377.95276"
     inkscape:window-width="1440"
     inkscape:window-height="830"
     inkscape:window-x="-6"
     inkscape:window-y="-6"
     inkscape:window-maximized="1"
     inkscape:current-layer="layer1" /><defs
     id="defs1" /><g
     inkscape:label="Layer 1"
     inkscape:groupmode="layer"
     id="layer1"><circle
       style="display:none;vector-effect:non-scaling-stroke;fill:#234e70;fill-opacity:1;stroke-width:0.264583;-inkscape-stroke:hairline"
       id="path6"
       cx="50"
       cy="50"
       r="33.773262" /><path
       style="fill:#ffffff;fill-opacity:1;stroke-width:0.412571"
       d="m 51.257228,66.688619 c -0.2007,-0.46621 -1.33528,-3.091925 -2.521299,-5.835012 -1.18601,-2.743098 -2.89118,-6.697001 -3.78928,-8.786445 -0.8981,-2.089434 -1.6578,-3.768279 -1.68824,-3.730768 -0.03,0.038 -1.45572,3.318589 -3.16727,7.291263 -1.711539,3.972673 -3.144299,7.268513 -3.183899,7.324094 -0.094,0.131802 -4.33745,0.148903 -4.40703,0.018 -0.024,-0.046 2.01154,-4.861452 4.52409,-10.701415 6.199779,-14.410272 6.190889,-14.389862 6.261909,-14.375592 0.034,0.0069 1.04729,2.294678 2.25079,5.083897 1.20349,2.789219 2.21454,5.052326 2.24676,5.029136 0.051,-0.037 3.010439,-6.946286 5.758629,-13.444033 0.4796,-1.133964 0.8909,-2.061743 0.914,-2.061743 0.023,0 0.8986,1.996942 1.94558,4.437653 1.04697,2.440711 1.92363,4.437593 1.94812,4.437523 0.024,-7e-5 0.4244,-0.892518 0.8886,-1.983201 l 0.844099,-1.983072 2.2407,-0.021 c 1.23239,-0.011 2.24012,0.0063 2.23941,0.039 -7.7e-4,0.033 -0.8915,2.134884 -1.97942,4.670888 l -1.97814,4.610916 3.46926,8.0887 c 1.90809,4.448774 3.4494,8.126121 3.42512,8.171872 -0.03,0.056 -0.755,0.083 -2.1988,0.083 h -2.15467 l -0.117,-0.227705 c -0.064,-0.125303 -1.99821,-4.612957 -4.297469,-9.972649 -2.29925,-5.359693 -4.21233,-9.745905 -4.25128,-9.747135 -0.039,-0.0013 -0.9157,1.985851 -1.94843,4.415763 -1.03269,2.429911 -2.01665,4.745189 -2.18658,5.145078 l -0.309,0.727015 0.7728,1.805928 c 0.425,0.993221 0.8037,1.803238 0.8414,1.799958 0.038,-0.0031 0.6979,-1.487742 1.46707,-3.29879 0.7692,-1.811038 1.42535,-3.292809 1.45819,-3.292809 0.033,0 0.5543,1.153504 1.15879,2.563344 l 1.09908,2.563334 -2.55726,5.964575 c -1.4065,3.280529 -2.57915,5.980986 -2.60589,6.001026 -0.027,0.02 -0.2128,-0.344907 -0.4135,-0.811117 z"
       id="path5" /></g></svg>
