<?xml version="1.0" encoding="UTF-8" standalone="no"?>
<!-- Created with Inkscape (http://www.inkscape.org/) -->

<svg
   width="200mm"
   height="200mm"
   viewBox="0 0 100 100"
   version="1.1"
   id="svg1"
   xml:space="preserve"
   inkscape:export-filename="honey .svg"
   inkscape:export-xdpi="96"
   inkscape:export-ydpi="96"
   sodipodi:docname="tab-logo.svg"
   inkscape:version="1.3.2 (091e20e, 2023-11-25, custom)"
   xmlns:inkscape="http://www.inkscape.org/namespaces/inkscape"
   xmlns:sodipodi="http://sodipodi.sourceforge.net/DTD/sodipodi-0.dtd"
   xmlns="http://www.w3.org/2000/svg"
   xmlns:svg="http://www.w3.org/2000/svg"><sodipodi:namedview
     id="namedview1"
     pagecolor="#ffffff"
     bordercolor="#000000"
     borderopacity="0.25"
     inkscape:showpageshadow="2"
     inkscape:pageopacity="0.0"
     inkscape:pagecheckerboard="0"
     inkscape:deskcolor="#d1d1d1"
     inkscape:document-units="mm"
     inkscape:zoom="0.78316667"
     inkscape:cx="377.95275"
     inkscape:cy="377.95275"
     inkscape:window-width="1440"
     inkscape:window-height="830"
     inkscape:window-x="-6"
     inkscape:window-y="-6"
     inkscape:window-maximized="1"
     inkscape:current-layer="layer1" /><defs
     id="defs1" /><g
     inkscape:label="Layer 1"
     inkscape:groupmode="layer"
     id="layer1"><circle
       style="vector-effect:non-scaling-stroke;fill:#234e70;fill-opacity:1;stroke-width:0.391705;-inkscape-stroke:hairline"
       id="path6"
       cx="50"
       cy="50"
       r="50" /><path
       style="fill:#fbf8be;fill-opacity:1;stroke-width:0.637505"
       d="m 52.096706,73.892755 c -0.334713,-0.667396 -2.226875,-4.426674 -4.204803,-8.35394 -1.977928,-3.927269 -4.821674,-9.588035 -6.319438,-12.579473 -1.497763,-2.991438 -2.764746,-5.395028 -2.815515,-5.341311 -0.05076,0.05375 -2.427712,4.751192 -5.282087,10.43884 -2.854374,5.687641 -5.243805,10.406272 -5.309837,10.48584 -0.156584,0.188665 -7.23364,0.213153 -7.349666,0.02544 -0.04055,-0.06559 3.354662,-6.960095 7.544883,-15.321128 10.339466,-20.631068 10.324638,-20.601848 10.443079,-20.581409 0.05743,0.0097 1.746584,3.285265 3.753671,7.278572 2.007086,3.993302 3.693216,7.233378 3.746953,7.200166 0.08456,-0.05225 5.020557,-9.944933 9.603747,-19.247713 0.799837,-1.623477 1.485772,-2.951779 1.524297,-2.951779 0.03852,0 1.498631,2.859008 3.244676,6.35335 1.746044,3.494342 3.208055,6.353269 3.248907,6.353166 0.04085,-9.6e-5 0.707732,-1.277796 1.481952,-2.839325 l 1.407667,-2.839149 3.736859,-0.02964 c 2.055271,-0.01639 3.735884,0.0091 3.734699,0.05621 -0.0013,0.04723 -1.486684,3.056489 -3.30112,6.687272 l -3.298968,6.601415 5.785733,11.580524 c 3.182153,6.369278 5.752609,11.634102 5.712133,11.699598 -0.04935,0.0798 -1.25916,0.11908 -3.666976,0.11908 h -3.593374 l -0.195119,-0.326069 c -0.10732,-0.179347 -3.332451,-6.604333 -7.16695,-14.277755 -3.834502,-7.673429 -7.024966,-13.953133 -7.089923,-13.954906 -0.06496,-0.0019 -1.527201,2.843134 -3.249436,6.322014 -1.722232,3.47888 -3.363195,6.793656 -3.646581,7.366172 l -0.515251,1.040936 1.28886,2.585534 c 0.708873,1.422042 1.340341,2.581681 1.403264,2.576977 0.06292,-0.0044 1.163923,-2.129992 2.446667,-4.722849 1.282744,-2.592851 2.377068,-4.714282 2.431832,-4.714282 0.05476,0 0.924404,1.651463 1.932534,3.669911 l 1.832963,3.669907 -4.264795,8.539442 c -2.34564,4.696697 -4.301285,8.562927 -4.345876,8.591619 -0.04459,0.02868 -0.354936,-0.493867 -0.68965,-1.161264 z"
       id="path5" /></g></svg>
